<?xml version="1.0" standalone="no"?>
<!DOCTYPE svg PUBLIC "-//W3C//DTD SVG 20010904//EN"
 "http://www.w3.org/TR/2001/REC-SVG-20010904/DTD/svg10.dtd">
<svg version="1.0" xmlns="http://www.w3.org/2000/svg"
 width="512.000000pt" height="512.000000pt" viewBox="0 0 512.000000 512.000000"
 preserveAspectRatio="xMidYMid meet">
<metadata>
Created by potrace 1.11, written by Peter Selinger 2001-2013
</metadata>
<g transform="translate(0.000000,512.000000) scale(0.100000,-0.100000)"
fill="#000000" stroke="none">
<path d="M2338 5115 c-1 -1 -34 -6 -72 -10 -39 -3 -126 -17 -194 -31 -109 -22
-161 -35 -302 -76 -67 -19 -256 -97 -357 -147 -279 -137 -575 -367 -794 -616
-172 -196 -340 -475 -442 -735 -43 -110 -101 -295 -111 -353 -3 -15 -7 -35
-10 -45 -7 -21 -13 -58 -27 -147 -6 -38 -13 -81 -17 -95 -3 -14 -7 -567 -9
-1230 l-2 -1205 24 -73 c54 -159 158 -265 315 -323 l65 -24 1185 0 c652 0
1214 3 1250 7 57 7 106 15 259 43 67 12 256 67 350 101 234 86 531 255 727
414 91 73 291 271 349 345 22 27 48 59 58 70 36 39 185 271 235 365 114 214
202 453 248 675 2 11 6 31 9 45 7 27 8 38 20 120 4 30 10 64 13 75 3 11 7 562
9 1225 l2 1205 -25 73 c-55 164 -163 271 -326 327 l-73 24 -1177 0 c-647 0
-1178 -2 -1180 -4z"/>
</g>
</svg>
