<svg version="1" xmlns="http://www.w3.org/2000/svg" width="682.667" height="682.667" viewBox="0 0 512.000000 512.000000"><path d="M43.6 195c.1 64.1.5 117.6.8 119 .4 1.4.9 2.9 1 3.5.2.5.7 2.5 1.1 4.2.4 1.8 1.2 3.3 1.7 3.3s.7.4.3.9c-.3.5.2 1.7 1.1 2.5.8.9 1.3 1.6.9 1.6-.7 0 .8 1.9 4.5 5.7 1.4 1.4 1.8 2.2 1 1.8-.8-.4-.5.2.7 1.4 1.2 1.1 2.6 2.1 3 2.1.4 0 2.1 1.4 3.6 3.2 1.6 1.8 2.6 2.6 2.2 1.8-.5-1.2-.4-1.2.7.1 1.3 1.6 1.9 1.9 3.9 1.9.5 0 .7.5.3 1.2-.5.8-.2.9.9.5.9-.3 2.3.1 3.2 1 .9.8 1.9 1.3 2.2.9.3-.3 1.2-.1 2 .5.7.6 1.3.8 1.3.5 0-.4.9-.2 2.1.4 1.1.7 6.4 1.3 11.7 1.4l9.7.3.1-72.1c.2-68.6.3-76.8 1.9-82.6.4-1.4.8-3.3.8-4.3.1-.9.4-1.7.7-1.7.4 0 .7-.6.8-1.3.1-1.2.9-4.7 1.2-5.7.1-.3.2-.8.1-1.3 0-.4.4-.7 1-.7.5 0 .7-.5.4-1-.3-.6-.1-1 .5-1s.8-.5.5-1c-.3-.6-.1-1 .4-1 .6 0 1.1-.7 1.1-1.5s.5-1.5 1.1-1.5c.5 0 .7-.5.4-1-.3-.6-.1-1 .4-1 .6 0 1-.3.8-.8-.2-.8 1.2-2.7 5.8-7.4 1.7-1.7 2.3-2.7 1.5-2.3-3.4 2 1.6-2.9 5.7-5.5 2.3-1.5 4-3 3.7-3.3-.3-.3.4-.8 1.5-1.2 1.2-.3 2.1-1.1 2.1-1.6 0-.6.5-.7 1-.4.6.3 1 .1 1-.5s.4-.9.9-.6c.5.3 1.1-.1 1.5-.9.3-.8 1.5-1.5 2.6-1.5s2-.5 2-1.1c0-.5.5-.7 1-.4.6.3 1 .1 1-.6s.3-.9.7-.6c.3.4 1.2.2 2-.4.7-.6 1.3-.9 1.3-.6 0 .3 1.6-.1 3.5-.9s3.7-1.4 4-1.4c.3 0 .7-.1 1-.1.3-.1 1.3-.2 2.3-.3.9-.1 2.2-.4 2.7-.7 2.2-1.2 12-1.3 118-1.3l110-.1-.1-10.5c-.1-5.8-.3-10.5-.4-10.5-.1 0-.3-.9-.5-1.9-.2-1.1-.6-3-1-4.3-.3-1.3-.6-2.6-.6-3 0-.5-.8-1.6-1.7-2.7-.9-1-1.5-1.9-1.4-2 .8-.3-2.2-5.6-3.1-5.6-.6 0-.8-.3-.5-.6.4-.3-.1-1.4-1-2.3-.9-1-2.4-2.7-3.3-3.7-2.4-2.8-8.5-7.9-10-8.2-.8-.2-1.7-.9-2.1-1.5-.4-.7-.8-.8-.8-.2 0 .5-.4.4-.8-.3-.5-.7-1.8-1.4-3-1.7-1.1-.2-2.9-.8-3.9-1.3-1-.6-2.1-1-2.5-1.1-.5-.1-.9-.1-1-.2-.2 0-1.2-.3-2.3-.6-1.1-.2-71.1-.6-155.5-.6l-153.5-.2.1 116.5z"/><path d="M173.7 156.6c-.1.1-1.8.4-3.7.7-7.9 1.3-10.6 1.9-11.6 2.8-.6.5-1.4.6-1.7.2-.4-.3-.7-.2-.7.3s-1 1-2.2 1.1c-1.1.1-2.4.6-2.7 1-1.2 1.6-7.4 5.5-6.6 4.2.4-.8-.6.1-2.2 1.8-1.6 1.8-3.3 3.3-3.8 3.3-.6.1-1.9 1.2-3 2.6-1.1 1.4-2.8 3.4-3.7 4.6-1 1.2-1.8 2.5-1.8 3s-.6.6-1.2.2c-.7-.4-1-.4-.6.1.4.4-.1 2-1.1 3.4-2.1 3.1-6.2 12.6-6.7 15.5-.2 1.2-.6 3.9-1 6.1-.7 3.9-1 166.3-.3 173.8.2 2.1.7 4.1 1.1 4.3.4.3.8 1.8.8 3.4 0 1.6.5 3.2 1 3.5.6.4.8 1.1.5 1.6-.4.5-.1.9.4.9.6 0 1 .3 1 .8-.1.4 0 1 .1 1.4.1.5.3 1.1.4 1.5 0 .5 1.3 2.4 2.9 4.4 1.5 2 2.7 3.9 2.7 4.3 0 .4 1 1.7 2.3 2.8 1.2 1.1 1.5 1.6.7 1.2-.8-.4.1.8 2 2.8 1.9 1.9 4 3.4 4.5 3.4.6-.1.9.5.7 1.2-.1.8.2 1.1.8.7.5-.3 1.3.1 1.6.9.3.9 1 1.4 1.4 1.1.4-.3 1.1.2 1.4 1.1.3.8 1 1.2 1.6.9.5-.3 1-.2 1 .2 0 .9 5.9 3.7 7.3 3.4.4 0 .7.4.7 1 0 .5.4.8.9.4.5-.3 1.2-.1 1.6.5.4.6 1.1.8 1.6.5.5-.4.9-.1.9.5 0 .7.7.9 1.6.6.9-.3 2.1-.3 2.7.1.6.4 2.5.9 4.2 1.1 4.6.7 253.7.6 256.5-.1 1.4-.3 3.6-.9 5-1.2 1.4-.4 3.1-.7 3.8-.7.6-.1 1.2-.5 1.2-1s.5-.6 1-.3c.6.3 1 .1 1-.5s.5-.8 1-.5c.6.3 1 .1 1-.5s.5-.8 1-.5c.6.3 1 .1 1-.4 0-.6.7-1.1 1.5-1.1s1.5-.5 1.5-1c0-.6.7-1 1.5-1s1.5-.5 1.5-1.1c0-.5.5-.7 1-.4.6.4.9.1.8-.6-.2-.7.8-1.8 2.2-2.6 1.4-.7 2.1-1.3 1.5-1.3-.5 0 .1-1.1 1.5-2.4 4.1-3.9 5.9-6.4 6.6-9.1.3-1.4 1.1-2.5 1.7-2.5.6 0 .8-.3.5-.6-.4-.3.1-2.2.9-4.2s1.7-5 2-6.7c.3-1.6.6-55.2.7-119l.1-116H320.7c-80.8 0-146.9.1-147 .1zm96 61.3c5.7 1.6 11.9 5.8 17.2 11.8 2.8 3.1 5.1 6.1 5.1 6.5 0 1.7 1.6.7 3.2-2 4.5-7.6 15.2-15.2 24.2-17.2 10.2-2.3 25-.9 32.8 3.1 10 5.1 18 16.2 20.4 28.4.2 1.1.7 3.3 1.1 5 1 4.3 1 119.6 0 120.2-.4.3-10.8.6-23.1.6l-22.3.2-.1-52.7c0-29-.3-54.1-.7-55.7-.8-3.9-2.7-5.3-6-4.5-5.4 1.3-5.5 2.4-5.5 59.9 0 28.9-.3 52.5-.7 52.5-.5.1-10.9.2-23.3.3l-22.5.2V321c0-29.4-.3-54.7-.7-56.1-.9-3.1-2.9-4.2-6.3-3.3-4.8 1.2-4.9 2.2-5.1 58.7 0 29-.3 52.9-.6 53.2-.4.4-34.8.9-43.6.6l-2.2-.1v-58.8c.1-47.5.3-59.8 1.5-64.1.8-3 1.2-5.8.9-6.2-.2-.4-.1-.9.3-1.1.5-.1 1.9-2.5 3.2-5.2 1.4-2.6 4.6-7 7.2-9.7 2.5-2.6 4.5-5.1 4.3-5.4-.2-.3-.1-.3.2-.1.3.3 3-.9 5.9-2.5 5.9-3.3 7.2-3.7 16.5-4.7 6.3-.7 11.6-.2 18.7 1.7z"/></svg>